<?xml version="1.0" standalone="no"?>
<svg xmlns:xlink="http://www.w3.org/1999/xlink" id="wave" style="transform:rotate(180deg); transition: 0.3s" viewBox="0 0 1440 490" version="1.1" xmlns="http://www.w3.org/2000/svg"><defs><linearGradient id="sw-gradient-0" x1="0" x2="0" y1="1" y2="0"><stop stop-color="rgba(67, 82, 200, 1)" offset="0%"/><stop stop-color="rgba(67, 82, 200, 1)" offset="100%"/></linearGradient></defs><path style="transform:translate(0, 0px); opacity:1" fill="url(#sw-gradient-0)" d="M0,147L48,155.2C96,163,192,180,288,212.3C384,245,480,294,576,302.2C672,310,768,278,864,236.8C960,196,1056,147,1152,171.5C1248,196,1344,294,1440,285.8C1536,278,1632,163,1728,114.3C1824,65,1920,82,2016,138.8C2112,196,2208,294,2304,334.8C2400,376,2496,359,2592,294C2688,229,2784,114,2880,65.3C2976,16,3072,33,3168,106.2C3264,180,3360,310,3456,343C3552,376,3648,310,3744,294C3840,278,3936,310,4032,326.7C4128,343,4224,343,4320,310.3C4416,278,4512,212,4608,220.5C4704,229,4800,310,4896,326.7C4992,343,5088,294,5184,302.2C5280,310,5376,376,5472,408.3C5568,441,5664,441,5760,416.5C5856,392,5952,343,6048,310.3C6144,278,6240,261,6336,245C6432,229,6528,212,6624,179.7C6720,147,6816,98,6864,73.5L6912,49L6912,490L6864,490C6816,490,6720,490,6624,490C6528,490,6432,490,6336,490C6240,490,6144,490,6048,490C5952,490,5856,490,5760,490C5664,490,5568,490,5472,490C5376,490,5280,490,5184,490C5088,490,4992,490,4896,490C4800,490,4704,490,4608,490C4512,490,4416,490,4320,490C4224,490,4128,490,4032,490C3936,490,3840,490,3744,490C3648,490,3552,490,3456,490C3360,490,3264,490,3168,490C3072,490,2976,490,2880,490C2784,490,2688,490,2592,490C2496,490,2400,490,2304,490C2208,490,2112,490,2016,490C1920,490,1824,490,1728,490C1632,490,1536,490,1440,490C1344,490,1248,490,1152,490C1056,490,960,490,864,490C768,490,672,490,576,490C480,490,384,490,288,490C192,490,96,490,48,490L0,490Z"/></svg>